# Blender 3.1.0
# www.blender.org
mtllib plate_withpattern.mtl
o Plate v1
v -3.040001 -5.172848 -0.000001
v 2.959817 -5.219143 -0.000001
v -3.040001 -5.172848 0.999999
v 2.959817 -5.219143 0.999999
v -5.999819 0.046294 0.000000
v -5.999819 0.046294 1.000000
v -2.959817 5.219143 0.000001
v -2.959817 5.219143 1.000001
v 3.040001 5.172848 0.000001
v 3.040001 5.172848 1.000001
v 5.999819 -0.046294 -0.000000
v 5.999819 -0.046294 1.000000
vn -0.0077 -1.0000 -0.0000
vn -0.8699 -0.4933 -0.0000
vn -0.8621 0.5067 -0.0000
vn 0.0077 1.0000 -0.0000
vn 0.8699 0.4933 -0.0000
vn 0.8621 -0.5067 -0.0000
vn -0.0000 -0.0000 1.0000
vn -0.0000 -0.0000 -1.0000
vt 0.000000 0.000000
vt 0.600000 0.000000
vt 0.304000 -0.517285
vt 0.600000 0.000000
vt 0.000000 0.000000
vt -0.295982 -0.521914
vt 0.000000 0.100000
vt 0.600000 0.100000
vt -0.304000 -0.517285
vt 0.600000 0.100000
vt 0.000000 0.100000
vt 0.295982 -0.521914
vt 0.000000 0.000000
vt 0.600000 0.000000
vt 0.599982 0.004629
vt 0.000000 0.100000
vt 0.600000 0.100000
vt -0.599982 0.004629
vt 0.000000 0.000000
vt 0.600000 0.000000
vt 0.295982 0.521914
vt 0.000000 0.100000
vt 0.600000 0.100000
vt -0.295982 0.521914
vt 0.000000 0.000000
vt 0.600000 0.000000
vt -0.304000 0.517285
vt 0.000000 0.100000
vt 0.600000 0.100000
vt 0.304000 0.517285
vt 0.000000 0.000000
vt 0.600000 0.000000
vt -0.599982 -0.004629
vt 0.000000 0.100000
vt 0.600000 0.100000
vt 0.599982 -0.004629
s 1
usemtl Steel_-_Satin
f 1/1/1 2/4/1 3/7/1
f 3/7/1 2/4/1 4/10/1
f 5/13/2 1/2/2 6/16/2
f 6/16/2 1/2/2 3/8/2
f 7/19/3 5/14/3 8/22/3
f 8/22/3 5/14/3 6/17/3
f 9/25/4 7/20/4 10/28/4
f 10/28/4 7/20/4 8/23/4
f 11/31/5 9/26/5 12/34/5
f 12/34/5 9/26/5 10/29/5
f 2/5/6 11/32/6 4/11/6
f 4/11/6 11/32/6 12/35/6
f 4/12/7 12/36/7 3/9/7
f 3/9/7 12/36/7 6/18/7
f 6/18/7 12/36/7 10/30/7
f 6/18/7 10/30/7 8/24/7
f 2/6/8 1/3/8 11/33/8
f 11/33/8 1/3/8 5/15/8
f 11/33/8 5/15/8 9/27/8
f 9/27/8 5/15/8 7/21/8
