# Blender v2.93.5 OBJ File: ''
# www.blender.org
mtllib Launcher.mtl
o Cylinder
v 0.000000 -1.000000 -1.000000
v 0.000000 1.000000 -1.000000
v 0.195090 -1.000000 -0.980785
v 0.195090 1.000000 -0.980785
v 0.382683 -1.000000 -0.923880
v 0.382683 1.000000 -0.923880
v 0.555570 -1.000000 -0.831470
v 0.555570 1.000000 -0.831470
v 0.707107 -1.000000 -0.707107
v 0.707107 1.000000 -0.707107
v 0.831470 -1.000000 -0.555570
v 0.831470 1.000000 -0.555570
v 0.923880 -1.000000 -0.382683
v 0.923880 1.000000 -0.382683
v 0.980785 -1.000000 -0.195090
v 0.980785 1.000000 -0.195090
v 1.000000 -1.000000 0.000000
v 1.000000 1.000000 0.000000
v 0.980785 -1.000000 0.195090
v 0.980785 1.000000 0.195090
v 0.923880 -1.000000 0.382683
v 0.923880 1.000000 0.382683
v 0.831470 -1.000000 0.555570
v 0.831470 1.000000 0.555570
v 0.707107 -1.000000 0.707107
v 0.707107 1.000000 0.707107
v 0.555570 -1.000000 0.831470
v 0.555570 1.000000 0.831470
v 0.382683 -1.000000 0.923880
v 0.382683 1.000000 0.923880
v 0.195090 -1.000000 0.980785
v 0.195090 1.000000 0.980785
v -0.000000 -1.000000 1.000000
v -0.000000 1.000000 1.000000
v -0.195090 -1.000000 0.980785
v -0.195090 1.000000 0.980785
v -0.382683 -1.000000 0.923880
v -0.382683 1.000000 0.923880
v -0.555570 -1.000000 0.831470
v -0.555570 1.000000 0.831470
v -0.707107 -1.000000 0.707107
v -0.707107 1.000000 0.707107
v -0.831469 -1.000000 0.555570
v -0.831469 1.000000 0.555570
v -0.923880 -1.000000 0.382684
v -0.923880 1.000000 0.382684
v -0.980785 -1.000000 0.195090
v -0.980785 1.000000 0.195090
v -1.000000 -1.000000 -0.000000
v -1.000000 1.000000 -0.000000
v -0.980785 -1.000000 -0.195090
v -0.980785 1.000000 -0.195090
v -0.923879 -1.000000 -0.382684
v -0.923879 1.000000 -0.382684
v -0.831470 -1.000000 -0.555570
v -0.831470 1.000000 -0.555570
v -0.707107 -1.000000 -0.707107
v -0.707107 1.000000 -0.707107
v -0.555570 -1.000000 -0.831470
v -0.555570 1.000000 -0.831470
v -0.382683 -1.000000 -0.923880
v -0.382683 1.000000 -0.923880
v -0.195090 -1.000000 -0.980785
v -0.195090 1.000000 -0.980785
v 0.784628 -1.000000 -0.156072
v 0.784628 1.000000 -0.156072
v -0.444456 -1.000000 0.665176
v -0.444456 1.000000 0.665176
v -0.565685 -1.000000 0.565685
v -0.565685 1.000000 0.565685
v 0.444456 -1.000000 -0.665176
v 0.565685 -1.000000 -0.565685
v 0.739104 -1.000000 -0.306147
v 0.565685 1.000000 -0.565685
v 0.444456 1.000000 -0.665176
v 0.739104 1.000000 -0.306147
v 0.665176 -1.000000 -0.444456
v 0.665176 1.000000 -0.444456
v -0.665176 -1.000000 0.444456
v -0.665176 1.000000 0.444456
v 0.800000 -1.000000 0.000000
v 0.800000 1.000000 0.000000
v -0.000000 -1.000000 0.800000
v 0.156072 -1.000000 0.784628
v -0.739104 -1.000000 0.306147
v -0.000000 1.000000 0.800000
v -0.739104 1.000000 0.306147
v 0.444456 -1.000000 0.665176
v 0.306147 1.000000 0.739104
v 0.665176 -1.000000 0.444456
v 0.156072 1.000000 0.784628
v 0.784628 -1.000000 0.156072
v 0.784628 1.000000 0.156072
v 0.565685 1.000000 0.565685
v 0.565685 -1.000000 0.565685
v 0.665176 1.000000 0.444456
v 0.444456 1.000000 0.665176
v 0.306147 -1.000000 0.739104
v -0.784628 -1.000000 0.156072
v -0.784628 1.000000 0.156072
v 0.739104 -1.000000 0.306147
v 0.739104 1.000000 0.306147
v -0.156072 1.000000 0.784628
v -0.306147 1.000000 0.739104
v 0.156072 1.000000 -0.784628
v 0.306147 1.000000 -0.739104
v -0.306147 -1.000000 0.739104
v 0.156072 -1.000000 -0.784628
v -0.156072 -1.000000 0.784628
v -0.800000 -1.000000 -0.000000
v -0.800000 1.000000 -0.000000
v 0.306147 -1.000000 -0.739104
v -0.784628 -1.000000 -0.156072
v -0.784628 1.000000 -0.156072
v -0.739104 -1.000000 -0.306147
v -0.739104 1.000000 -0.306147
v -0.665176 -1.000000 -0.444456
v -0.665176 1.000000 -0.444456
v -0.565686 1.000000 -0.565685
v -0.156072 1.000000 -0.784628
v 0.000000 1.000000 -0.800000
v -0.565686 -1.000000 -0.565685
v 0.000000 -1.000000 -0.800000
v -0.156072 -1.000000 -0.784628
v -0.306147 1.000000 -0.739104
v -0.444456 1.000000 -0.665176
v -0.444456 -1.000000 -0.665176
v -0.306147 -1.000000 -0.739104
vt 1.000000 0.500000
vt 1.000000 1.000000
vt 0.968750 1.000000
vt 0.968750 0.500000
vt 0.937500 1.000000
vt 0.937500 0.500000
vt 0.906250 1.000000
vt 0.906250 0.500000
vt 0.875000 1.000000
vt 0.875000 0.500000
vt 0.843750 1.000000
vt 0.843750 0.500000
vt 0.812500 1.000000
vt 0.812500 0.500000
vt 0.781250 1.000000
vt 0.781250 0.500000
vt 0.750000 1.000000
vt 0.750000 0.500000
vt 0.718750 1.000000
vt 0.718750 0.500000
vt 0.687500 1.000000
vt 0.687500 0.500000
vt 0.656250 1.000000
vt 0.656250 0.500000
vt 0.625000 1.000000
vt 0.625000 0.500000
vt 0.593750 1.000000
vt 0.593750 0.500000
vt 0.562500 1.000000
vt 0.562500 0.500000
vt 0.531250 1.000000
vt 0.531250 0.500000
vt 0.500000 1.000000
vt 0.500000 0.500000
vt 0.468750 1.000000
vt 0.468750 0.500000
vt 0.437500 1.000000
vt 0.437500 0.500000
vt 0.406250 1.000000
vt 0.406250 0.500000
vt 0.375000 1.000000
vt 0.375000 0.500000
vt 0.343750 1.000000
vt 0.343750 0.500000
vt 0.312500 1.000000
vt 0.312500 0.500000
vt 0.281250 1.000000
vt 0.281250 0.500000
vt 0.250000 1.000000
vt 0.250000 0.500000
vt 0.218750 1.000000
vt 0.218750 0.500000
vt 0.187500 1.000000
vt 0.187500 0.500000
vt 0.156250 1.000000
vt 0.156250 0.500000
vt 0.125000 1.000000
vt 0.125000 0.500000
vt 0.093750 1.000000
vt 0.093750 0.500000
vt 0.062500 1.000000
vt 0.062500 0.500000
vt 0.385764 0.114235
vt 0.419706 0.080294
vt 0.449553 0.116663
vt 0.471731 0.158156
vt 0.485388 0.203178
vt 0.490000 0.250000
vt 0.485388 0.296822
vt 0.471731 0.341844
vt 0.449553 0.383337
vt 0.419706 0.419706
vt 0.383337 0.449553
vt 0.341844 0.471731
vt 0.296822 0.485388
vt 0.287457 0.438311
vt 0.323475 0.427385
vt 0.356669 0.409642
vt 0.385764 0.385765
vt 0.409642 0.356669
vt 0.427385 0.323475
vt 0.438311 0.287457
vt 0.442000 0.250000
vt 0.438311 0.212543
vt 0.427385 0.176525
vt 0.409642 0.143330
vt 0.250000 0.490000
vt 0.203178 0.485388
vt 0.158156 0.471731
vt 0.116663 0.449553
vt 0.080294 0.419706
vt 0.050447 0.383337
vt 0.028269 0.341844
vt 0.014612 0.296822
vt 0.010000 0.250000
vt 0.014612 0.203178
vt 0.028269 0.158156
vt 0.050447 0.116663
vt 0.080294 0.080294
vt 0.116663 0.050447
vt 0.158156 0.028269
vt 0.203178 0.014612
vt 0.250000 0.010000
vt 0.296822 0.014612
vt 0.341844 0.028269
vt 0.383337 0.050447
vt 0.356669 0.090358
vt 0.323475 0.072615
vt 0.287457 0.061689
vt 0.250000 0.058000
vt 0.212543 0.061689
vt 0.176525 0.072615
vt 0.143330 0.090358
vt 0.114235 0.114235
vt 0.090358 0.143330
vt 0.072615 0.176525
vt 0.061689 0.212543
vt 0.058000 0.250000
vt 0.061689 0.287457
vt 0.072615 0.323475
vt 0.090358 0.356669
vt 0.114235 0.385764
vt 0.143330 0.409642
vt 0.176525 0.427385
vt 0.212543 0.438311
vt 0.250000 0.442000
vt 0.031250 1.000000
vt 0.031250 0.500000
vt 0.000000 1.000000
vt 0.000000 0.500000
vt 0.885764 0.114235
vt 0.919706 0.080294
vt 0.883337 0.050447
vt 0.841844 0.028269
vt 0.796822 0.014612
vt 0.750000 0.010000
vt 0.703178 0.014612
vt 0.658156 0.028269
vt 0.616663 0.050447
vt 0.580294 0.080294
vt 0.550447 0.116663
vt 0.528269 0.158156
vt 0.514612 0.203178
vt 0.510000 0.250000
vt 0.514612 0.296822
vt 0.528269 0.341844
vt 0.550447 0.383337
vt 0.580294 0.419706
vt 0.616663 0.449553
vt 0.658156 0.471731
vt 0.703178 0.485388
vt 0.750000 0.490000
vt 0.796822 0.485388
vt 0.787457 0.438311
vt 0.750000 0.442000
vt 0.712543 0.438311
vt 0.676525 0.427385
vt 0.643331 0.409642
vt 0.614235 0.385764
vt 0.590358 0.356669
vt 0.572615 0.323475
vt 0.561689 0.287457
vt 0.558000 0.250000
vt 0.561689 0.212543
vt 0.572615 0.176525
vt 0.590358 0.143330
vt 0.614235 0.114235
vt 0.643330 0.090358
vt 0.676525 0.072615
vt 0.712543 0.061689
vt 0.750000 0.058000
vt 0.787457 0.061689
vt 0.823475 0.072615
vt 0.856669 0.090358
vt 0.841844 0.471731
vt 0.883337 0.449553
vt 0.919706 0.419706
vt 0.949553 0.383337
vt 0.971731 0.341844
vt 0.985388 0.296822
vt 0.990000 0.250000
vt 0.985388 0.203178
vt 0.971731 0.158156
vt 0.949553 0.116663
vt 0.909642 0.143331
vt 0.927385 0.176525
vt 0.938310 0.212543
vt 0.942000 0.250000
vt 0.938311 0.287457
vt 0.927385 0.323475
vt 0.909642 0.356669
vt 0.885764 0.385764
vt 0.856669 0.409642
vt 0.823475 0.427385
vt 0.968750 0.534560
vt 0.968750 0.989105
vt 1.000000 0.989105
vt 1.000000 0.534560
vt 0.937500 0.534560
vt 0.937500 0.989105
vt 0.968750 0.534560
vt 0.906250 0.534560
vt 0.906250 0.989105
vt 0.875000 0.534560
vt 0.875000 0.989105
vt 0.843750 0.989105
vt 0.843750 0.534560
vt 0.843750 0.534560
vt 0.812500 0.534560
vt 0.812500 0.989105
vt 0.781250 0.534560
vt 0.781250 0.989105
vt 0.750000 0.989105
vt 0.750000 0.534560
vt 0.718750 0.989105
vt 0.718750 0.534560
vt 0.687500 0.989105
vt 0.718750 0.534560
vt 0.687500 0.534560
vt 0.656250 0.534560
vt 0.656250 0.989105
vt 0.625000 0.989105
vt 0.625000 0.534560
vt 0.593750 0.534560
vt 0.593750 0.989105
vt 0.562500 0.989105
vt 0.593750 0.534560
vt 0.562500 0.534560
vt 0.531250 0.534560
vt 0.531250 0.989105
vt 0.500000 0.534560
vt 0.500000 0.989105
vt 0.468750 0.989105
vt 0.468750 0.534560
vt 0.437500 0.989105
vt 0.437500 0.534560
vt 0.406250 0.534560
vt 0.406250 0.989105
vt 0.375000 0.989105
vt 0.375000 0.534560
vt 0.343750 0.534560
vt 0.343750 0.989105
vt 0.312500 0.534560
vt 0.312500 0.989105
vt 0.281250 0.534560
vt 0.281250 0.989105
vt 0.250000 0.534560
vt 0.250000 0.989105
vt 0.218750 0.534560
vt 0.218750 0.989105
vt 0.187500 0.534560
vt 0.187500 0.989105
vt 0.156250 0.534560
vt 0.156250 0.989105
vt 0.125000 0.534560
vt 0.125000 0.989105
vt 0.093750 0.534560
vt 0.093750 0.989105
vt 0.062500 0.534560
vt 0.062500 0.989105
vt 0.093750 0.989105
vt 0.031250 0.534560
vt 0.031250 0.989105
vt 0.000000 0.534560
vt 0.000000 0.989105
vn 0.0980 0.0000 -0.9952
vn 0.2903 0.0000 -0.9569
vn 0.4714 0.0000 -0.8819
vn 0.6344 0.0000 -0.7730
vn 0.7730 0.0000 -0.6344
vn 0.8819 0.0000 -0.4714
vn 0.9569 0.0000 -0.2903
vn 0.9952 0.0000 -0.0980
vn 0.9952 0.0000 0.0980
vn 0.9569 0.0000 0.2903
vn 0.8819 0.0000 0.4714
vn 0.7730 0.0000 0.6344
vn 0.6344 0.0000 0.7730
vn 0.4714 0.0000 0.8819
vn 0.2903 0.0000 0.9569
vn 0.0980 0.0000 0.9952
vn -0.0980 0.0000 0.9952
vn -0.2903 0.0000 0.9569
vn -0.4714 0.0000 0.8819
vn -0.6344 0.0000 0.7730
vn -0.7730 0.0000 0.6344
vn -0.8819 0.0000 0.4714
vn -0.9569 0.0000 0.2903
vn -0.9952 0.0000 0.0980
vn -0.9952 0.0000 -0.0980
vn -0.9569 0.0000 -0.2903
vn -0.8819 0.0000 -0.4714
vn -0.7730 0.0000 -0.6344
vn -0.6344 0.0000 -0.7730
vn -0.4714 0.0000 -0.8819
vn 0.0000 1.0000 0.0000
vn -0.2903 0.0000 -0.9569
vn -0.0980 0.0000 -0.9952
vn 0.0000 -1.0000 -0.0000
usemtl None
s off
f 1/1/1 2/2/1 4/3/1 3/4/1
f 3/4/2 4/3/2 6/5/2 5/6/2
f 5/6/3 6/5/3 8/7/3 7/8/3
f 7/8/4 8/7/4 10/9/4 9/10/4
f 9/10/5 10/9/5 12/11/5 11/12/5
f 11/12/6 12/11/6 14/13/6 13/14/6
f 13/14/7 14/13/7 16/15/7 15/16/7
f 15/16/8 16/15/8 18/17/8 17/18/8
f 17/18/9 18/17/9 20/19/9 19/20/9
f 19/20/10 20/19/10 22/21/10 21/22/10
f 21/22/11 22/21/11 24/23/11 23/24/11
f 23/24/12 24/23/12 26/25/12 25/26/12
f 25/26/13 26/25/13 28/27/13 27/28/13
f 27/28/14 28/27/14 30/29/14 29/30/14
f 29/30/15 30/29/15 32/31/15 31/32/15
f 31/32/16 32/31/16 34/33/16 33/34/16
f 33/34/17 34/33/17 36/35/17 35/36/17
f 35/36/18 36/35/18 38/37/18 37/38/18
f 37/38/19 38/37/19 40/39/19 39/40/19
f 39/40/20 40/39/20 42/41/20 41/42/20
f 41/42/21 42/41/21 44/43/21 43/44/21
f 43/44/22 44/43/22 46/45/22 45/46/22
f 45/46/23 46/45/23 48/47/23 47/48/23
f 47/48/24 48/47/24 50/49/24 49/50/24
f 49/50/25 50/49/25 52/51/25 51/52/25
f 51/52/26 52/51/26 54/53/26 53/54/26
f 53/54/27 54/53/27 56/55/27 55/56/27
f 55/56/28 56/55/28 58/57/28 57/58/28
f 57/58/29 58/57/29 60/59/29 59/60/29
f 59/60/30 60/59/30 62/61/30 61/62/30
f 94/63/31 26/64/31 24/65/31 22/66/31 20/67/31 18/68/31 16/69/31 14/70/31 12/71/31 10/72/31 8/73/31 6/74/31 4/75/31 105/76/31 106/77/31 75/78/31 74/79/31 78/80/31 76/81/31 66/82/31 82/83/31 93/84/31 102/85/31 96/86/31
f 105/76/31 4/75/31 2/87/31 64/88/31 62/89/31 60/90/31 58/91/31 56/92/31 54/93/31 52/94/31 50/95/31 48/96/31 46/97/31 44/98/31 42/99/31 40/100/31 38/101/31 36/102/31 34/103/31 32/104/31 30/105/31 28/106/31 26/64/31 94/63/31 97/107/31 89/108/31 91/109/31 86/110/31 103/111/31 104/112/31 68/113/31 70/114/31 80/115/31 87/116/31 100/117/31 111/118/31 114/119/31 116/120/31 118/121/31 119/122/31 126/123/31 125/124/31 120/125/31 121/126/31
f 61/62/32 62/61/32 64/127/32 63/128/32
f 63/128/33 64/127/33 2/129/33 1/130/33
f 95/131/34 25/132/34 27/133/34 29/134/34 31/135/34 33/136/34 35/137/34 37/138/34 39/139/34 41/140/34 43/141/34 45/142/34 47/143/34 49/144/34 51/145/34 53/146/34 55/147/34 57/148/34 59/149/34 61/150/34 63/151/34 1/152/34 3/153/34 108/154/34 123/155/34 124/156/34 128/157/34 127/158/34 122/159/34 117/160/34 115/161/34 113/162/34 110/163/34 99/164/34 85/165/34 79/166/34 69/167/34 67/168/34 107/169/34 109/170/34 83/171/34 84/172/34 98/173/34 88/174/34
f 108/154/34 3/153/34 5/175/34 7/176/34 9/177/34 11/178/34 13/179/34 15/180/34 17/181/34 19/182/34 21/183/34 23/184/34 25/132/34 95/131/34 90/185/34 101/186/34 92/187/34 81/188/34 65/189/34 73/190/34 77/191/34 72/192/34 71/193/34 112/194/34
f 108/195/17 105/196/17 121/197/17 123/198/17
f 112/199/18 106/200/18 105/196/18 108/201/18
f 71/202/19 75/203/19 106/200/19 112/199/19
f 75/203/20 71/202/20 72/204/20 74/205/20
f 78/206/21 74/205/21 72/204/21 77/207/21
f 77/208/22 73/209/22 76/210/22 78/206/22
f 73/209/23 65/211/23 66/212/23 76/210/23
f 82/213/24 66/212/24 65/211/24 81/214/24
f 93/215/25 82/213/25 81/214/25 92/216/25
f 102/217/26 93/215/26 92/218/26 101/219/26
f 102/217/27 101/219/27 90/220/27 96/221/27
f 94/222/28 96/221/28 90/220/28 95/223/28
f 95/223/29 88/224/29 97/225/29 94/222/29
f 89/226/30 97/225/30 88/227/30 98/228/30
f 98/228/32 84/229/32 91/230/32 89/226/32
f 84/229/33 83/231/33 86/232/33 91/230/33
f 103/233/1 86/232/1 83/231/1 109/234/1
f 104/235/2 103/233/2 109/234/2 107/236/2
f 67/237/3 68/238/3 104/235/3 107/236/3
f 70/239/4 68/238/4 67/237/4 69/240/4
f 79/241/5 80/242/5 70/239/5 69/240/5
f 85/243/6 87/244/6 80/242/6 79/241/6
f 99/245/7 100/246/7 87/244/7 85/243/7
f 110/247/8 111/248/8 100/246/8 99/245/8
f 113/249/9 114/250/9 111/248/9 110/247/9
f 115/251/10 116/252/10 114/250/10 113/249/10
f 117/253/11 118/254/11 116/252/11 115/251/11
f 122/255/12 119/256/12 118/254/12 117/253/12
f 127/257/13 126/258/13 119/256/13 122/255/13
f 128/259/14 125/260/14 126/261/14 127/257/14
f 124/262/15 120/263/15 125/260/15 128/259/15
f 123/264/16 121/265/16 120/263/16 124/262/16
