# 3ds Max Wavefront OBJ Exporter v0.97b - (c)2007 guruware
# File Created: 22.02.2014 02:31:23

#
# object Object004
#

v  153.9789 -210.5046 -0.2443
v  145.9789 -210.5046 -0.2443
v  145.9789 -90.5046 -0.2443
v  153.9789 -90.5046 -0.2443
v  153.9789 -210.5046 1.2557
v  153.9789 -90.5046 1.2557
v  145.9789 -90.5046 1.2557
v  145.9789 -210.5046 1.2557
v  109.9789 -210.0046 1.2550
v  117.9789 -210.0046 1.2550
v  117.9789 -90.4798 1.2550
v  109.9789 -90.4798 1.2550
v  109.9789 -210.0046 -0.2450
v  109.9789 -90.4798 -0.2450
v  117.9789 -90.4798 -0.2450
v  117.9789 -210.0046 -0.2450
v  73.9789 -90.5046 -0.2443
v  81.9789 -90.5046 -0.2443
v  81.9789 -210.5046 -0.2443
v  73.9789 -210.5046 -0.2443
v  73.9789 -90.5046 1.2557
v  73.9789 -210.5046 1.2557
v  81.9789 -210.5046 1.2557
v  81.9789 -90.5046 1.2557
v  153.9789 -98.5046 1.2557
v  145.9789 -98.5046 1.2557
v  153.9789 -90.5046 9.2557
v  145.9789 -90.5046 9.2557
v  145.9789 -98.5046 9.2557
v  153.9789 -98.5046 9.2557
v  117.9789 -98.4798 1.2550
v  109.9789 -98.4798 1.2550
v  117.9789 -90.4798 9.2550
v  109.9789 -90.4798 9.2550
v  109.9789 -98.4798 9.2550
v  117.9789 -98.4798 9.2550
v  81.9789 -90.4550 1.2543
v  81.9789 -98.4550 1.2543
v  73.9789 -98.4550 1.2543
v  73.9789 -90.4550 1.2543
v  81.9789 -90.4550 9.2543
v  73.9789 -90.4550 9.2543
v  73.9789 -98.4550 9.2543
v  81.9789 -98.4550 9.2543
v  82.0788 -146.5228 1.2109
v  82.0788 -154.5228 1.2109
v  74.0788 -154.5228 1.2109
v  74.0788 -146.5228 1.2109
v  82.0788 -146.5228 9.2109
v  74.0788 -146.5228 9.2109
v  74.0788 -154.5228 9.2109
v  82.0788 -154.5228 9.2109
v  118.0788 -146.5020 1.2103
v  118.0788 -154.5020 1.2103
v  110.0788 -154.5020 1.2103
v  110.0788 -146.5020 1.2103
v  118.0788 -146.5020 9.2103
v  110.0788 -146.5020 9.2103
v  110.0788 -154.5020 9.2103
v  118.0788 -154.5020 9.2103
v  154.0788 -146.5228 1.2109
v  154.0788 -154.5228 1.2109
v  146.0788 -154.5228 1.2109
v  146.0788 -146.5228 1.2109
v  154.0788 -146.5228 9.2109
v  146.0788 -146.5228 9.2109
v  146.0788 -154.5228 9.2109
v  154.0788 -154.5228 9.2109
v  153.9789 -202.5046 1.2557
v  145.9789 -202.5046 1.2557
v  153.9789 -202.5046 9.2557
v  145.9789 -202.5046 9.2557
v  145.9789 -210.5046 9.2557
v  153.9789 -210.5046 9.2557
v  117.9789 -202.0046 1.2550
v  109.9789 -202.0046 1.2550
v  117.9789 -202.0046 9.2550
v  109.9789 -202.0046 9.2550
v  109.9789 -210.0046 9.2550
v  117.9789 -210.0046 9.2550
v  81.9789 -202.5046 1.2557
v  73.9789 -202.5046 1.2557
v  81.9789 -202.5046 9.2557
v  73.9789 -202.5046 9.2557
v  73.9789 -210.5046 9.2557
v  81.9789 -210.5046 9.2557
v  136.2788 -210.5046 11.2557
v  127.2788 -210.5046 11.2557
v  127.2788 -90.5046 11.2557
v  136.2788 -90.5046 11.2557
v  136.2788 -210.5046 12.7557
v  136.2788 -90.5046 12.7557
v  127.2788 -90.5046 12.7557
v  127.2788 -210.5046 12.7557
v  109.5788 -90.5046 11.2557
v  118.5788 -90.5046 11.2557
v  118.5788 -210.5046 11.2557
v  109.5788 -210.5046 11.2557
v  109.5788 -90.5046 12.7557
v  109.5788 -210.5046 12.7557
v  118.5788 -210.5046 12.7557
v  118.5788 -90.5046 12.7557
v  91.8788 -210.5046 12.7557
v  100.8788 -210.5046 12.7557
v  100.8788 -90.5046 12.7557
v  91.8788 -90.5046 12.7557
v  91.8788 -210.5046 11.2557
v  91.8788 -90.5046 11.2557
v  100.8788 -90.5046 11.2557
v  100.8788 -210.5046 11.2557
v  83.1788 -210.5046 11.2557
v  74.1788 -210.5046 11.2557
v  74.1788 -90.5046 11.2557
v  83.1788 -90.5046 11.2557
v  83.1788 -210.5046 12.7557
v  83.1788 -90.5046 12.7557
v  74.1788 -90.5046 12.7557
v  74.1788 -210.5046 12.7557
v  73.9789 -98.5046 9.2557
v  73.9789 -90.5046 9.2557
v  153.9789 -90.5046 11.2557
v  73.9789 -90.5046 11.2557
v  73.9789 -98.5046 11.2557
v  153.9789 -98.5046 11.2557
v  153.9789 -202.5046 11.2557
v  73.9789 -202.5046 11.2557
v  73.9789 -210.5046 11.2557
v  153.9789 -210.5046 11.2557
v  154.0788 -146.5046 9.2109
v  154.0788 -154.5046 9.2109
v  74.0788 -154.5046 9.2109
v  74.0788 -146.5046 9.2109
v  154.0788 -146.5046 11.2109
v  74.0788 -146.5046 11.2109
v  74.0788 -154.5046 11.2109
v  154.0788 -154.5046 11.2109
v  153.9789 -90.5046 12.7557
v  144.9789 -90.5046 12.7557
v  144.9789 -210.5046 12.7557
v  153.9789 -210.5046 12.7557
v  144.9789 -210.5046 11.2557
v  144.9789 -90.5046 11.2557
# 142 vertices

vn -0.0000 -0.0000 -1.0000
vn 0.0000 0.0000 1.0000
vn 1.0000 0.0000 0.0000
vn -0.0000 1.0000 0.0000
vn -1.0000 -0.0000 0.0000
vn 0.0000 -1.0000 0.0000
vn -0.0000 -0.0000 1.0000
vn 0.0000 0.0000 -1.0000
vn -1.0000 0.0000 0.0000
vn -0.0000 -1.0000 0.0000
vn 1.0000 -0.0000 0.0000
vn 0.0000 1.0000 0.0000
vn -0.0000 0.0000 1.0000
vn 0.0000 -0.0000 -1.0000
# 14 vertex normals

vt 0.9900 0.0959 0.0000
vt 0.9900 0.1694 0.0000
vt 0.0100 0.1694 0.0000
vt 0.0100 0.0959 0.0000
vt 0.9900 0.0835 0.0000
vt 0.0100 0.0835 0.0000
vt 0.0100 0.0100 0.0000
vt 0.9900 0.0100 0.0000
vt 0.9900 0.1940 0.0000
vt 0.0100 0.1940 0.0000
vt 0.0100 0.1818 0.0000
vt 0.9900 0.1818 0.0000
vt 0.0835 0.2679 0.0000
vt 0.0100 0.2679 0.0000
vt 0.0100 0.2556 0.0000
vt 0.0835 0.2556 0.0000
vt 0.9900 0.2186 0.0000
vt 0.0100 0.2186 0.0000
vt 0.0100 0.2064 0.0000
vt 0.9900 0.2064 0.0000
vt 0.0835 0.2432 0.0000
vt 0.0100 0.2432 0.0000
vt 0.0100 0.2310 0.0000
vt 0.0835 0.2310 0.0000
vt 0.1534 0.9187 0.0000
vt 0.0837 0.9187 0.0000
vt 0.0837 0.8491 0.0000
vt 0.1534 0.8491 0.0000
vt 0.0820 0.9204 0.0000
vt 0.0820 0.9901 0.0000
vt 0.0124 0.9901 0.0000
vt 0.0124 0.9204 0.0000
vt 0.1551 0.7777 0.0000
vt 0.2247 0.7777 0.0000
vt 0.2247 0.8474 0.0000
vt 0.1551 0.8474 0.0000
vt 0.0124 0.8491 0.0000
vt 0.0820 0.8491 0.0000
vt 0.0820 0.9187 0.0000
vt 0.0124 0.9187 0.0000
vt 0.0124 0.7777 0.0000
vt 0.0820 0.7777 0.0000
vt 0.0820 0.8474 0.0000
vt 0.0124 0.8474 0.0000
vt 0.0837 0.7777 0.0000
vt 0.1534 0.7777 0.0000
vt 0.1534 0.8474 0.0000
vt 0.0837 0.8474 0.0000
vt 0.9900 0.3621 0.0000
vt 0.9900 0.4356 0.0000
vt 0.0100 0.4356 0.0000
vt 0.0100 0.3621 0.0000
vt 0.9900 0.3497 0.0000
vt 0.0100 0.3497 0.0000
vt 0.0100 0.2762 0.0000
vt 0.9900 0.2762 0.0000
vt 0.9900 0.4602 0.0000
vt 0.0100 0.4602 0.0000
vt 0.0100 0.4479 0.0000
vt 0.9900 0.4479 0.0000
vt 0.0835 0.5340 0.0000
vt 0.0100 0.5340 0.0000
vt 0.0100 0.5218 0.0000
vt 0.0835 0.5218 0.0000
vt 0.9900 0.4848 0.0000
vt 0.0100 0.4848 0.0000
vt 0.0100 0.4725 0.0000
vt 0.9900 0.4725 0.0000
vt 0.0835 0.5094 0.0000
vt 0.0100 0.5094 0.0000
vt 0.0100 0.4972 0.0000
vt 0.0835 0.4972 0.0000
vt 0.9900 0.6362 0.0000
vt 0.9900 0.7097 0.0000
vt 0.0100 0.7097 0.0000
vt 0.0100 0.6362 0.0000
vt 0.9900 0.6239 0.0000
vt 0.0100 0.6239 0.0000
vt 0.0100 0.5504 0.0000
vt 0.9900 0.5504 0.0000
vt 0.9900 0.7343 0.0000
vt 0.0100 0.7343 0.0000
vt 0.0100 0.7221 0.0000
vt 0.9900 0.7221 0.0000
vt 0.1630 0.5345 0.0000
vt 0.0895 0.5345 0.0000
vt 0.0895 0.5222 0.0000
vt 0.1630 0.5222 0.0000
vt 0.9900 0.7590 0.0000
vt 0.0100 0.7590 0.0000
vt 0.0100 0.7467 0.0000
vt 0.9900 0.7467 0.0000
vt 0.1630 0.5098 0.0000
vt 0.0895 0.5098 0.0000
vt 0.0895 0.4976 0.0000
vt 0.1630 0.4976 0.0000
vt 0.9375 0.8538 0.0000
vt 0.9375 0.9222 0.0000
vt 0.2530 0.9222 0.0000
vt 0.2530 0.8538 0.0000
vt 0.9375 0.8434 0.0000
vt 0.2530 0.8434 0.0000
vt 0.2530 0.7750 0.0000
vt 0.9375 0.7750 0.0000
vt 0.9375 0.9497 0.0000
vt 0.2530 0.9497 0.0000
vt 0.2530 0.9326 0.0000
vt 0.9375 0.9326 0.0000
vt 0.2295 0.9446 0.0000
vt 0.1611 0.9446 0.0000
vt 0.1611 0.9275 0.0000
vt 0.2295 0.9275 0.0000
vt 0.9375 0.9772 0.0000
vt 0.2530 0.9772 0.0000
vt 0.2530 0.9601 0.0000
vt 0.9375 0.9601 0.0000
vt 0.1560 0.9452 0.0000
vt 0.0876 0.9452 0.0000
vt 0.0876 0.9281 0.0000
vt 0.1560 0.9281 0.0000
# 120 texture coords

g Object004
s 2
f 1/1/1 2/2/1 3/3/1 4/4/1 
s 4
f 5/5/2 6/6/2 7/7/2 8/8/2 
s 8
f 1/9/3 4/10/3 6/11/3 5/12/3 
s 16
f 4/13/4 3/14/4 7/15/4 6/16/4 
s 32
f 3/17/5 2/18/5 8/19/5 7/20/5 
s 64
f 2/21/6 1/22/6 5/23/6 8/24/6 
s 2
f 9/1/7 10/2/7 11/3/7 12/4/7 
s 4
f 13/5/8 14/6/8 15/7/8 16/8/8 
s 8
f 9/9/5 12/10/5 14/11/5 13/12/5 
s 16
f 12/13/4 11/14/4 15/15/4 14/16/4 
s 32
f 11/17/3 10/18/3 16/19/3 15/20/3 
s 64
f 10/21/6 9/22/6 13/23/6 16/24/6 
s 2
f 17/1/8 18/2/8 19/3/8 20/4/8 
s 4
f 21/5/2 22/6/2 23/7/2 24/8/2 
s 8
f 17/9/9 20/10/9 22/11/9 21/12/9 
s 16
f 20/13/10 19/14/10 23/15/10 22/16/10 
s 32
f 19/17/11 18/18/11 24/19/11 23/20/11 
s 64
f 18/21/12 17/22/12 21/23/12 24/24/12 
s 2
f 6/25/8 25/26/8 26/27/8 7/28/8 
s 4
f 27/29/2 28/30/2 29/31/2 30/32/2 
s 8
f 6/33/4 7/34/4 28/35/4 27/36/4 
s 16
f 7/37/5 26/38/5 29/39/5 28/40/5 
s 32
f 26/41/6 25/42/6 30/43/6 29/44/6 
s 64
f 25/45/3 6/46/3 27/47/3 30/48/3 
s 2
f 11/25/8 31/26/8 32/27/8 12/28/8 
s 4
f 33/29/2 34/30/2 35/31/2 36/32/2 
s 8
f 11/33/4 12/34/4 34/35/4 33/36/4 
s 16
f 12/37/5 32/38/5 35/39/5 34/40/5 
s 32
f 32/41/6 31/42/6 36/43/6 35/44/6 
s 64
f 31/45/3 11/46/3 33/47/3 36/48/3 
s 2
f 37/25/8 38/26/8 39/27/8 40/28/8 
s 4
f 41/29/2 42/30/2 43/31/2 44/32/2 
s 8
f 37/33/4 40/34/4 42/35/4 41/36/4 
s 16
f 40/37/5 39/38/5 43/39/5 42/40/5 
s 32
f 39/41/6 38/42/6 44/43/6 43/44/6 
s 64
f 38/45/3 37/46/3 41/47/3 44/48/3 
s 2
f 45/25/8 46/26/8 47/27/8 48/28/8 
s 4
f 49/29/2 50/30/2 51/31/2 52/32/2 
s 8
f 45/33/4 48/34/4 50/35/4 49/36/4 
s 16
f 48/37/5 47/38/5 51/39/5 50/40/5 
s 32
f 47/41/6 46/42/6 52/43/6 51/44/6 
s 64
f 46/45/3 45/46/3 49/47/3 52/48/3 
s 2
f 53/25/8 54/26/8 55/27/8 56/28/8 
s 4
f 57/29/2 58/30/2 59/31/2 60/32/2 
s 8
f 53/33/4 56/34/4 58/35/4 57/36/4 
s 16
f 56/37/5 55/38/5 59/39/5 58/40/5 
s 32
f 55/41/6 54/42/6 60/43/6 59/44/6 
s 64
f 54/45/3 53/46/3 57/47/3 60/48/3 
s 2
f 61/25/8 62/26/8 63/27/8 64/28/8 
s 4
f 65/29/2 66/30/2 67/31/2 68/32/2 
s 8
f 61/33/4 64/34/4 66/35/4 65/36/4 
s 16
f 64/37/5 63/38/5 67/39/5 66/40/5 
s 32
f 63/41/6 62/42/6 68/43/6 67/44/6 
s 64
f 62/45/3 61/46/3 65/47/3 68/48/3 
s 2
f 69/25/8 5/26/8 8/27/8 70/28/8 
s 4
f 71/29/2 72/30/2 73/31/2 74/32/2 
s 8
f 69/33/4 70/34/4 72/35/4 71/36/4 
s 16
f 70/37/5 8/38/5 73/39/5 72/40/5 
s 32
f 8/41/6 5/42/6 74/43/6 73/44/6 
s 64
f 5/45/3 69/46/3 71/47/3 74/48/3 
s 2
f 75/25/8 10/26/8 9/27/8 76/28/8 
s 4
f 77/29/2 78/30/2 79/31/2 80/32/2 
s 8
f 75/33/4 76/34/4 78/35/4 77/36/4 
s 16
f 76/37/5 9/38/5 79/39/5 78/40/5 
s 32
f 9/41/6 10/42/6 80/43/6 79/44/6 
s 64
f 10/45/3 75/46/3 77/47/3 80/48/3 
s 2
f 81/25/8 23/26/8 22/27/8 82/28/8 
s 4
f 83/29/2 84/30/2 85/31/2 86/32/2 
s 8
f 81/33/4 82/34/4 84/35/4 83/36/4 
s 16
f 82/37/5 22/38/5 85/39/5 84/40/5 
s 32
f 22/41/6 23/42/6 86/43/6 85/44/6 
s 64
f 23/45/3 81/46/3 83/47/3 86/48/3 
s 2
f 87/49/8 88/50/8 89/51/8 90/52/8 
s 4
f 91/53/2 92/54/2 93/55/2 94/56/2 
s 8
f 87/57/3 90/58/3 92/59/3 91/60/3 
s 16
f 90/61/4 89/62/4 93/63/4 92/64/4 
s 32
f 89/65/5 88/66/5 94/67/5 93/68/5 
s 64
f 88/69/6 87/70/6 91/71/6 94/72/6 
s 2
f 95/73/8 96/74/8 97/75/8 98/76/8 
s 4
f 99/77/2 100/78/2 101/79/2 102/80/2 
s 8
f 95/81/9 98/82/9 100/83/9 99/84/9 
s 16
f 98/85/6 97/86/6 101/87/6 100/88/6 
s 32
f 97/89/11 96/90/11 102/91/11 101/92/11 
s 64
f 96/93/4 95/94/4 99/95/4 102/96/4 
s 2
f 103/1/7 104/2/7 105/3/7 106/4/7 
s 4
f 107/5/8 108/6/8 109/7/8 110/8/8 
s 8
f 103/9/5 106/10/5 108/11/5 107/12/5 
s 16
f 106/13/4 105/14/4 109/15/4 108/16/4 
s 32
f 105/17/3 104/18/3 110/19/3 109/20/3 
s 64
f 104/21/6 103/22/6 107/23/6 110/24/6 
s 2
f 111/1/8 112/2/8 113/3/8 114/4/8 
s 4
f 115/5/2 116/6/2 117/7/2 118/8/2 
s 8
f 111/9/3 114/10/3 116/11/3 115/12/3 
s 16
f 114/13/4 113/14/4 117/15/4 116/16/4 
s 32
f 113/17/5 112/18/5 118/19/5 117/20/5 
s 64
f 112/21/6 111/22/6 115/23/6 118/24/6 
s 2
f 27/97/8 30/98/8 119/99/8 120/100/8 
s 4
f 121/101/2 122/102/2 123/103/2 124/104/2 
s 8
f 27/105/4 120/106/4 122/107/4 121/108/4 
s 16
f 120/109/5 119/110/5 123/111/5 122/112/5 
s 32
f 119/113/6 30/114/6 124/115/6 123/116/6 
s 64
f 30/117/3 27/118/3 121/119/3 124/120/3 
s 2
f 71/97/8 74/98/8 85/99/8 84/100/8 
s 4
f 125/101/2 126/102/2 127/103/2 128/104/2 
s 8
f 71/105/4 84/106/4 126/107/4 125/108/4 
s 16
f 84/109/5 85/110/5 127/111/5 126/112/5 
s 32
f 85/113/6 74/114/6 128/115/6 127/116/6 
s 64
f 74/117/3 71/118/3 125/119/3 128/120/3 
s 2
f 129/97/8 130/98/8 131/99/8 132/100/8 
s 4
f 133/101/2 134/102/2 135/103/2 136/104/2 
s 8
f 129/105/4 132/106/4 134/107/4 133/108/4 
s 16
f 132/109/5 131/110/5 135/111/5 134/112/5 
s 32
f 131/113/6 130/114/6 136/115/6 135/116/6 
s 64
f 130/117/3 129/118/3 133/119/3 136/120/3 
s 2
f 137/49/13 138/50/13 139/51/13 140/52/13 
s 4
f 121/53/14 128/54/14 141/55/14 142/56/14 
s 8
f 137/57/3 140/58/3 128/59/3 121/60/3 
s 16
f 140/61/6 139/62/6 141/63/6 128/64/6 
s 32
f 139/65/5 138/66/5 142/67/5 141/68/5 
s 64
f 138/69/4 137/70/4 121/71/4 142/72/4 
# 120 polygons

